<?xml version="1.0" encoding="UTF-8" standalone="no"?>
<svg width="407px" height="231px" viewBox="0 0 407 231" version="1.1" xmlns="http://www.w3.org/2000/svg" xmlns:xlink="http://www.w3.org/1999/xlink" xmlns:sketch="http://www.bohemiancoding.com/sketch/ns">
    <!-- Generator: Sketch 3.1.1 (8761) - http://www.bohemiancoding.com/sketch -->
    <title>Artboard 1</title>
    <desc>Created with Sketch.</desc>
    <defs></defs>
    <g id="Page-1" stroke="none" stroke-width="1" fill="none" fill-rule="evenodd" sketch:type="MSPage">
        <g id="Artboard-1" sketch:type="MSArtboardGroup">
            <path d="M14.0098612,0 C6.27242853,0 0,6.26844429 0,13.9944444 L0,217.005556 C0,224.734474 6.27066267,231 14.0098612,231 L392.990139,231 C400.727571,231 407,224.731556 407,217.005556 L407,13.9944444 C407,6.2655262 400.729337,0 392.990139,0 L14.0098612,0 Z M47,18 L47,212 L361,212 L361,18 L47,18 Z" id="Rectangle-1" fill="#FFFFFF" sketch:type="MSShapeGroup"></path>
            <g id="Line-+-Line-2-+-Oval-1" sketch:type="MSLayerGroup" transform="translate(57.000000, 49.000000)" stroke="#FFFFFF">
                <path d="M26,4.5 L26,46.5119019" id="Line" stroke-width="8" stroke-linecap="square" sketch:type="MSShapeGroup"></path>
                <path d="M25.9957925,25.5042084 L9.74807695,41.7519234" id="Line-2" stroke-width="8" sketch:type="MSShapeGroup"></path>
                <circle id="Oval-1" stroke-width="7" sketch:type="MSShapeGroup" cx="26" cy="26" r="26"></circle>
            </g>
            <g id="Line-+-Line-2-+-Oval-2" sketch:type="MSLayerGroup" transform="translate(117.000000, 49.000000)" stroke="#FFFFFF">
                <path d="M26,4.5 L26,46.5119019" id="Line" stroke-width="8" stroke-linecap="square" sketch:type="MSShapeGroup"></path>
                <path d="M25.9957925,25.5042084 L9.74807695,41.7519234" id="Line-2" stroke-width="8" sketch:type="MSShapeGroup"></path>
                <circle id="Oval-1" stroke-width="7" sketch:type="MSShapeGroup" cx="26" cy="26" r="26"></circle>
            </g>
            <g id="Line-+-Line-2-+-Oval-3" sketch:type="MSLayerGroup" transform="translate(177.000000, 49.000000)" stroke="#FFFFFF">
                <path d="M26,4.5 L26,46.5119019" id="Line" stroke-width="8" stroke-linecap="square" sketch:type="MSShapeGroup"></path>
                <path d="M25.9957925,25.5042084 L9.74807695,41.7519234" id="Line-2" stroke-width="8" sketch:type="MSShapeGroup"></path>
                <circle id="Oval-1" stroke-width="7" sketch:type="MSShapeGroup" cx="26" cy="26" r="26"></circle>
            </g>
            <g id="Line-+-Line-2-+-Oval-4" sketch:type="MSLayerGroup" transform="translate(237.000000, 49.000000)" stroke="#097777">
                <path d="M26,4.5 L26,46.5119019" id="Line" stroke-width="8" stroke-linecap="square" sketch:type="MSShapeGroup"></path>
                <path d="M25.9957925,25.5042084 L9.2332136,42.2667873" id="Line-2" stroke-width="8" sketch:type="MSShapeGroup"></path>
                <circle id="Oval-1" stroke-width="7" sketch:type="MSShapeGroup" cx="26" cy="26" r="26"></circle>
            </g>
            <g id="Line-+-Line-2-+-Oval-5" sketch:type="MSLayerGroup" transform="translate(297.000000, 49.000000)" stroke="#097777">
                <path d="M26,4.5 L26,46.5119019" id="Line" stroke-width="8" stroke-linecap="square" sketch:type="MSShapeGroup"></path>
                <path d="M25.9957925,25.5042084 L9.2332136,42.2667873" id="Line-2" stroke-width="8" sketch:type="MSShapeGroup"></path>
                <circle id="Oval-1" stroke-width="7" sketch:type="MSShapeGroup" cx="26" cy="26" r="26"></circle>
            </g>
            <g id="Line-+-Line-2-+-Oval-10" sketch:type="MSLayerGroup" transform="translate(57.000000, 129.000000)" stroke="#097777">
                <path d="M26,4.5 L26,46.5119019" id="Line" stroke-width="8" stroke-linecap="square" sketch:type="MSShapeGroup"></path>
                <path d="M25.9957925,25.5042084 L9.2332136,42.2667873" id="Line-2" stroke-width="8" sketch:type="MSShapeGroup"></path>
                <circle id="Oval-1" stroke-width="7" sketch:type="MSShapeGroup" cx="26" cy="26" r="26"></circle>
            </g>
            <g id="Line-+-Line-2-+-Oval-6" sketch:type="MSLayerGroup" transform="translate(117.000000, 129.000000)" stroke="#097777">
                <path d="M26,4.5 L26,46.5119019" id="Line" stroke-width="8" stroke-linecap="square" sketch:type="MSShapeGroup"></path>
                <path d="M25.9957925,25.5042084 L9.2332136,42.2667873" id="Line-2" stroke-width="8" sketch:type="MSShapeGroup"></path>
                <circle id="Oval-1" stroke-width="7" sketch:type="MSShapeGroup" cx="26" cy="26" r="26"></circle>
            </g>
            <g id="Line-+-Line-2-+-Oval-7" sketch:type="MSLayerGroup" transform="translate(177.000000, 129.000000)" stroke="#097777">
                <path d="M26,4.5 L26,46.5119019" id="Line" stroke-width="8" stroke-linecap="square" sketch:type="MSShapeGroup"></path>
                <path d="M25.9957925,25.5042084 L9.2332136,42.2667873" id="Line-2" stroke-width="8" sketch:type="MSShapeGroup"></path>
                <circle id="Oval-1" stroke-width="7" sketch:type="MSShapeGroup" cx="26" cy="26" r="26"></circle>
            </g>
            <g id="Line-+-Line-2-+-Oval-8" sketch:type="MSLayerGroup" transform="translate(237.000000, 129.000000)" stroke="#097777">
                <path d="M26,4.5 L26,46.5119019" id="Line" stroke-width="8" stroke-linecap="square" sketch:type="MSShapeGroup"></path>
                <path d="M25.9957925,25.5042084 L9.2332136,42.2667873" id="Line-2" stroke-width="8" sketch:type="MSShapeGroup"></path>
                <circle id="Oval-1" stroke-width="7" sketch:type="MSShapeGroup" cx="26" cy="26" r="26"></circle>
            </g>
            <g id="Line-+-Line-2-+-Oval-9" sketch:type="MSLayerGroup" transform="translate(297.000000, 129.000000)" stroke="#097777">
                <path d="M26,4.5 L26,46.5119019" id="Line" stroke-width="8" stroke-linecap="square" sketch:type="MSShapeGroup"></path>
                <path d="M25.9957925,25.5042084 L9.2332136,42.2667873" id="Line-2" stroke-width="8" sketch:type="MSShapeGroup"></path>
                <circle id="Oval-1" stroke-width="7" sketch:type="MSShapeGroup" cx="26" cy="26" r="26"></circle>
            </g>
        </g>
    </g>
</svg>